<svg width="26" height="24" viewBox="0 0 26 24" fill="none" xmlns="http://www.w3.org/2000/svg">
<path d="M18.6871 9.33578L24.4559 7.41259C24.9442 7.25009 25.1871 6.84384 25.1871 6.35634C25.1871 5.86884 24.8621 5.46259 24.4559 5.30009L12.9996 1.48134L1.54335 5.30009C1.05585 5.46259 0.812103 5.86884 0.812103 6.35634C0.812103 6.84384 1.1371 7.25009 1.54335 7.41259L12.9996 11.2313" stroke="#8345FE" stroke-width="2"/>
<path d="M13 6.3565L16.25 10.419V16.1065" stroke="#8345FE" stroke-width="2"/>
<path fill-rule="evenodd" clip-rule="evenodd" d="M16.25 22.6065H14.625V17.7315C14.625 16.8378 15.3563 16.1065 16.25 16.1065C17.1438 16.1065 17.875 16.8378 17.875 17.7315V22.6065H16.25Z" stroke="#8345FE" stroke-width="2"/>
<path d="M14.6246 18.4744C14.116 18.5191 13.574 18.5443 13.0004 18.5443C12.7217 18.5443 12.4504 18.5378 12.1879 18.5273C7.07973 18.3111 4.87542 16.1068 4.87542 16.1068V8.52295" stroke="#8345FE" stroke-width="2"/>
<path d="M21.125 8.52319V16.1063C21.125 16.1063 20.1143 17.1178 17.875 17.8369" stroke="#8345FE" stroke-width="2"/>
</svg>
