<svg width="128" height="128" viewBox="0 0 128 128" fill="none" xmlns="http://www.w3.org/2000/svg">
<g clip-path="url(#clip0_129_138)">
<path d="M88.55 63.2L75.318 29.8133L64.1607 49.3333L53.0034 29.8133L39.7714 63.2107H35.9474V68.2293H55.8727V63.2107H52.9234L55.7927 54.9173L64.1607 68.624L72.5287 54.9173L75.398 63.2107H72.4487V68.2293H92.454V63.2107L88.55 63.2ZM117.003 53.0027C117.007 46.0413 115.638 39.1474 112.976 32.7153C110.314 26.2831 106.41 20.4388 101.487 15.5163C96.5646 10.5939 90.7203 6.68985 84.2881 4.02746C77.8559 1.36506 70.9621 -0.00349834 64.0007 6.71563e-06C34.7527 6.71563e-06 10.998 23.7493 10.998 53.0027C10.998 67.6693 16.9767 80.896 26.5394 90.4587C27.1382 91.0628 27.9031 91.4751 28.7369 91.6433C29.5707 91.8115 30.4357 91.7279 31.2219 91.4031C32.008 91.0783 32.6798 90.5271 33.1519 89.8195C33.6239 89.1119 33.8748 88.2799 33.8727 87.4293C33.8745 86.2669 33.4163 85.151 32.598 84.3253C24.3142 76.0079 19.6719 64.7416 19.6914 53.0027C19.6914 28.5333 39.5314 8.60801 64.0007 8.60801C88.47 8.60801 108.395 28.5333 108.395 53.0027C108.408 58.8352 107.267 64.6128 105.037 70.0023C102.808 75.3918 99.5334 80.2869 95.4034 84.4053L57.942 121.861L64.0007 128L101.542 90.4587C106.461 85.5427 110.359 79.7026 113.013 73.2745C115.666 66.8463 117.022 59.9569 117.003 53.0027Z" fill="#EC1B26"/>
</g>
<defs>
<clipPath id="clip0_129_138">
<rect width="128" height="128" fill="white"/>
</clipPath>
</defs>
</svg>
