<svg width="128" height="128" viewBox="0 0 128 128" fill="none" xmlns="http://www.w3.org/2000/svg">
<path d="M48 90.6676V37.3325H64C68.2435 37.3325 72.3131 39.0182 75.3137 42.0188C78.3143 45.0194 80 49.0891 80 53.3325C80 57.576 78.3143 61.6456 75.3137 64.6462C72.3131 67.6468 68.2435 69.3325 64 69.3325H48" stroke="#306CFE" stroke-width="5" stroke-linecap="round" stroke-linejoin="round"/>
<path d="M106.668 16H21.3325C18.3885 16 16 18.3885 16 21.3325V106.668C16 109.612 18.3885 112 21.3325 112H106.668C109.612 112 112 109.612 112 106.668V21.3325C112 18.3885 109.612 16 106.668 16Z" stroke="#306CFE" stroke-width="5" stroke-linecap="round" stroke-linejoin="round"/>
</svg>
