<svg width="128" height="128" viewBox="0 0 128 128" fill="none" xmlns="http://www.w3.org/2000/svg">
<path fill-rule="evenodd" clip-rule="evenodd" d="M50.2984 22.2745C48.7837 25.8265 48.661 30.3732 48.813 34.6665H98.6664C100.138 34.6665 101.349 35.8665 101.181 37.3278C100.154 46.3012 93.9837 54.1092 85.005 58.9198C85.2317 59.9678 85.333 61.0478 85.333 62.1412C85.333 66.9918 81.661 70.8212 77.7357 73.2532C75.1374 74.8424 72.3002 76.0031 69.333 76.6905V71.1785C71.3006 70.6122 73.1832 69.7844 74.9304 68.7172C78.3384 66.6078 79.9997 64.1758 79.9997 62.1412C79.9997 61.8105 79.9864 61.4958 79.9624 61.1918C75.9704 62.6772 71.589 63.6238 66.973 63.9092V85.3332H61.6397V63.9412C43.245 63.0398 28.461 51.6745 26.8184 37.3278C26.6504 35.8665 27.8584 34.6665 29.333 34.6665H43.477C43.325 30.3118 43.421 24.8052 45.3917 20.1838C46.5224 17.5305 48.2984 15.0905 51.0264 13.3412C53.7464 11.5998 57.205 10.6665 61.4877 10.6665C66.733 10.6665 70.9997 12.5705 73.9037 14.4158C75.3624 15.3412 76.5037 16.2692 77.2904 16.9732C77.7216 17.3598 78.1362 17.7646 78.533 18.1865L78.5597 18.2132L78.565 18.2238L78.5704 18.2265C78.5704 18.2265 78.5704 18.2318 76.613 19.9678L78.573 18.2318C79.0272 18.7627 79.2549 19.4506 79.2071 20.1476C79.1594 20.8446 78.84 21.495 78.3177 21.959C77.7953 22.423 77.1118 22.6634 76.414 22.6287C75.7163 22.5939 75.06 22.2867 74.5864 21.7732L74.5597 21.7438C74.2943 21.4669 74.0186 21.2 73.733 20.9438C72.8937 20.1963 71.9947 19.5185 71.045 18.9172C68.6984 17.4292 65.421 15.9998 61.4877 15.9998C57.9784 15.9998 55.581 16.7572 53.9064 17.8292C52.2424 18.8958 51.093 20.4078 50.2984 22.2745ZM32.8157 39.9998C35.949 50.0265 47.9277 58.6665 63.9997 58.6665C80.0717 58.6665 92.053 50.0265 95.1837 39.9998H32.8157Z" fill="#52B311"/>
<path d="M42.666 112V117.333H85.3327V112H77.282C79.042 109.835 79.9993 107.107 79.9993 104C79.9993 99.88 78.314 96.4267 75.314 94.0694C72.3807 91.768 68.4127 90.6667 63.9993 90.6667C60.0447 90.6667 56.5327 90.32 54.082 89.2294C52.906 88.7067 52.09 88.0614 51.5593 87.304C51.042 86.5654 50.666 85.5334 50.666 83.9974C50.666 82.4667 51.0393 81.4374 51.5593 80.696C52.09 79.9387 52.906 79.2934 54.082 78.7707C55.354 78.2054 56.9087 77.8374 58.666 77.6187V72.248C56.282 72.504 53.946 72.9947 51.9167 73.896C50.0927 74.7067 48.41 75.896 47.1887 77.6374C45.9567 79.3974 45.3327 81.5334 45.3327 84C45.3327 86.4667 45.9567 88.6027 47.1887 90.3627C48.41 92.1041 50.0953 93.2934 51.9167 94.1041C55.4633 95.6801 59.954 95.9974 63.9993 95.9974C67.5887 95.9974 70.282 96.8987 72.018 98.264C73.6847 99.5707 74.666 101.453 74.666 103.997C74.666 106.547 73.6847 108.427 72.018 109.736C70.7993 110.693 69.1113 111.421 66.9727 111.771V101.333H61.6393V112H42.666Z" fill="#52B311"/>
</svg>
