<svg width="128" height="128" viewBox="0 0 128 128" fill="none" xmlns="http://www.w3.org/2000/svg">
<path d="M24.16 67.0135V101.84L56.6133 110.934M56.6133 110.934V53.0402M56.6133 110.934L98.6933 101.787V65.9735M56.6133 53.0402L98.2133 43.9468L67.5467 34.5068L23.8667 43.9468L18 64.8268L23.8667 66.9068L50.4533 76.3202L56.6133 53.0402Z" stroke="#FFDD00" stroke-width="3" stroke-linecap="round" stroke-linejoin="round"/>
<path d="M63.4667 97.3336L91.2267 92.0802M44.48 78.8802L40 98.3202M38.2933 77.4136L33.6533 96.5602M29.76 88.6136L47.04 93.3336M31.9467 81.4936L48.5333 86.3736M23.8667 43.9469L56.6133 53.0402L74.48 72.1069L116 61.6002L98.2133 43.9469L114.08 29.2269L83.3333 20.2136L67.5467 34.5069L56.1867 17.0669L12 26.4269L23.8667 43.9469Z" stroke="#FFDD00" stroke-width="3" stroke-linecap="round" stroke-linejoin="round"/>
</svg>
